<?xml version="1.0" encoding="UTF-8"?>
<!DOCTYPE svg PUBLIC "-//W3C//DTD SVG 1.1//EN" "http://www.w3.org/Graphics/SVG/1.1/DTD/svg11.dtd">
<svg version="1.2" width="100mm" height="100mm" viewBox="0 0 10000 10000" preserveAspectRatio="xMidYMid" fill-rule="evenodd" stroke-width="28.222" stroke-linejoin="round" xmlns="http://www.w3.org/2000/svg" xmlns:ooo="http://xml.openoffice.org/svg/export" xmlns:xlink="http://www.w3.org/1999/xlink" xmlns:presentation="http://sun.com/xmlns/staroffice/presentation" xmlns:smil="http://www.w3.org/2001/SMIL20/" xmlns:anim="urn:oasis:names:tc:opendocument:xmlns:animation:1.0" xmlns:svg="urn:oasis:names:tc:opendocument:xmlns:svg-compatible:1.0" xml:space="preserve">
 <defs class="ClipPathGroup">
  <clipPath id="presentation_clip_path" clipPathUnits="userSpaceOnUse">
   <rect x="0" y="0" width="10000" height="10000"/>
  </clipPath>
  <clipPath id="presentation_clip_path_shrink" clipPathUnits="userSpaceOnUse">
   <rect x="10" y="10" width="9980" height="9980"/>
  </clipPath>
 </defs>
 <defs class="TextShapeIndex">
  <g ooo:slide="id1" ooo:id-list="id3 id4 id5 id6 id7 id8 id9 id10 id11"/>
 </defs>
 <defs class="EmbeddedBulletChars">
  <g id="bullet-char-template-57356" transform="scale(0.00048828125,-0.00048828125)">
   <path d="M 580,1141 L 1163,571 580,0 -4,571 580,1141 Z"/>
  </g>
  <g id="bullet-char-template-57354" transform="scale(0.00048828125,-0.00048828125)">
   <path d="M 8,1128 L 1137,1128 1137,0 8,0 8,1128 Z"/>
  </g>
  <g id="bullet-char-template-10146" transform="scale(0.00048828125,-0.00048828125)">
   <path d="M 174,0 L 602,739 174,1481 1456,739 174,0 Z M 1358,739 L 309,1346 659,739 1358,739 Z"/>
  </g>
  <g id="bullet-char-template-10132" transform="scale(0.00048828125,-0.00048828125)">
   <path d="M 2015,739 L 1276,0 717,0 1260,543 174,543 174,936 1260,936 717,1481 1274,1481 2015,739 Z"/>
  </g>
  <g id="bullet-char-template-10007" transform="scale(0.00048828125,-0.00048828125)">
   <path d="M 0,-2 C -7,14 -16,27 -25,37 L 356,567 C 262,823 215,952 215,954 215,979 228,992 255,992 264,992 276,990 289,987 310,991 331,999 354,1012 L 381,999 492,748 772,1049 836,1024 860,1049 C 881,1039 901,1025 922,1006 886,937 835,863 770,784 769,783 710,716 594,584 L 774,223 C 774,196 753,168 711,139 L 727,119 C 717,90 699,76 672,76 641,76 570,178 457,381 L 164,-76 C 142,-110 111,-127 72,-127 30,-127 9,-110 8,-76 1,-67 -2,-52 -2,-32 -2,-23 -1,-13 0,-2 Z"/>
  </g>
  <g id="bullet-char-template-10004" transform="scale(0.00048828125,-0.00048828125)">
   <path d="M 285,-33 C 182,-33 111,30 74,156 52,228 41,333 41,471 41,549 55,616 82,672 116,743 169,778 240,778 293,778 328,747 346,684 L 369,508 C 377,444 397,411 428,410 L 1163,1116 C 1174,1127 1196,1133 1229,1133 1271,1133 1292,1118 1292,1087 L 1292,965 C 1292,929 1282,901 1262,881 L 442,47 C 390,-6 338,-33 285,-33 Z"/>
  </g>
  <g id="bullet-char-template-9679" transform="scale(0.00048828125,-0.00048828125)">
   <path d="M 813,0 C 632,0 489,54 383,161 276,268 223,411 223,592 223,773 276,916 383,1023 489,1130 632,1184 813,1184 992,1184 1136,1130 1245,1023 1353,916 1407,772 1407,592 1407,412 1353,268 1245,161 1136,54 992,0 813,0 Z"/>
  </g>
  <g id="bullet-char-template-8226" transform="scale(0.00048828125,-0.00048828125)">
   <path d="M 346,457 C 273,457 209,483 155,535 101,586 74,649 74,723 74,796 101,859 155,911 209,963 273,989 346,989 419,989 480,963 531,910 582,859 608,796 608,723 608,648 583,586 532,535 482,483 420,457 346,457 Z"/>
  </g>
  <g id="bullet-char-template-8211" transform="scale(0.00048828125,-0.00048828125)">
   <path d="M -4,459 L 1135,459 1135,606 -4,606 -4,459 Z"/>
  </g>
  <g id="bullet-char-template-61548" transform="scale(0.00048828125,-0.00048828125)">
   <path d="M 173,740 C 173,903 231,1043 346,1159 462,1274 601,1332 765,1332 928,1332 1067,1274 1183,1159 1299,1043 1357,903 1357,740 1357,577 1299,437 1183,322 1067,206 928,148 765,148 601,148 462,206 346,322 231,437 173,577 173,740 Z"/>
  </g>
 </defs>
 <g>
  <g id="id2" class="Master_Slide">
   <g id="bg-id2" class="Background"/>
   <g id="bo-id2" class="BackgroundObjects"/>
  </g>
 </g>
 <g class="SlideGroup">
  <g>
   <g id="container-id1">
    <g id="id1" class="Slide" clip-path="url(#presentation_clip_path)">
     <g class="Page">
      <g class="Group">
       <g class="com.sun.star.drawing.ClosedBezierShape">
        <g id="id3">
         <rect class="BoundingBox" stroke="none" fill="none" x="365" y="364" width="5050" height="5049"/>
         <path fill="rgb(161,70,126)" stroke="none" d="M 5414,5412 L 373,5412 C 368,5319 365,5227 365,5134 365,4296 585,3474 1004,2749 1422,2024 2024,1422 2749,1004 3474,585 4297,365 5134,365 5227,365 5321,368 5414,373 L 5414,5412 Z "/>
        </g>
       </g>
       <g class="Group">
        <g class="com.sun.star.drawing.CustomShape">
         <g id="id4">
          <rect class="BoundingBox" stroke="none" fill="none" x="366" y="7504" width="5611" height="2246"/>
          <path fill="rgb(161,70,126)" stroke="none" d="M 366,8627 C 366,8429 496,8236 742,8065 988,7895 1342,7753 1768,7654 2195,7556 2678,7504 3170,7504 3663,7504 4146,7556 4573,7654 4999,7753 5353,7895 5599,8065 5845,8236 5975,8429 5975,8627 5975,8824 5845,9017 5599,9188 5353,9358 4999,9500 4573,9599 4146,9697 3663,9749 3171,9749 2678,9749 2195,9697 1768,9599 1342,9500 988,9358 742,9188 496,9017 366,8824 366,8627 L 366,8627 Z "/>
         </g>
        </g>
        <g class="com.sun.star.drawing.CustomShape">
         <g id="id5">
          <rect class="BoundingBox" stroke="none" fill="none" x="366" y="6896" width="5611" height="2246"/>
          <path fill="rgb(120,3,115)" stroke="none" d="M 366,8019 C 366,7821 496,7628 742,7457 988,7287 1342,7145 1768,7046 2195,6948 2678,6896 3170,6896 3663,6896 4146,6948 4573,7046 4999,7145 5353,7287 5599,7457 5845,7628 5975,7821 5975,8019 5975,8216 5845,8409 5599,8580 5353,8750 4999,8892 4573,8991 4146,9089 3663,9141 3171,9141 2678,9141 2195,9089 1768,8991 1342,8892 988,8750 742,8580 496,8409 366,8216 366,8019 L 366,8019 Z "/>
         </g>
        </g>
        <g class="com.sun.star.drawing.CustomShape">
         <g id="id6">
          <rect class="BoundingBox" stroke="none" fill="none" x="366" y="6134" width="5611" height="2246"/>
          <path fill="rgb(161,70,126)" stroke="none" d="M 366,7257 C 366,7059 496,6866 742,6695 988,6525 1342,6383 1768,6284 2195,6186 2678,6134 3170,6134 3663,6134 4146,6186 4573,6284 4999,6383 5353,6525 5599,6695 5845,6866 5975,7059 5975,7257 5975,7454 5845,7647 5599,7818 5353,7988 4999,8130 4573,8229 4146,8327 3663,8379 3171,8379 2678,8379 2195,8327 1768,8229 1342,8130 988,7988 742,7818 496,7647 366,7454 366,7257 L 366,7257 Z "/>
         </g>
        </g>
        <g class="com.sun.star.drawing.CustomShape">
         <g id="id7">
          <rect class="BoundingBox" stroke="none" fill="none" x="367" y="5013" width="5609" height="2246"/>
          <path fill="rgb(161,70,126)" stroke="none" d="M 367,6136 L 367,5013 5975,5013 5975,7258 367,7258 367,6136 Z "/>
         </g>
        </g>
        <g class="Group">
         <g class="com.sun.star.drawing.CustomShape">
          <g id="id8">
           <rect class="BoundingBox" stroke="none" fill="none" x="5041" y="364" width="2619" height="5610"/>
           <path fill="rgb(161,70,126)" stroke="none" d="M 6350,5973 L 5041,5973 5041,364 7659,364 7659,5973 6350,5973 Z "/>
          </g>
         </g>
         <g class="com.sun.star.drawing.CustomShape">
          <g id="id9">
           <rect class="BoundingBox" stroke="none" fill="none" x="6533" y="364" width="2247" height="5611"/>
           <path fill="rgb(120,3,115)" stroke="none" d="M 7656,5974 C 7459,5974 7266,5844 7095,5598 6925,5352 6783,4998 6684,4572 6586,4145 6534,3661 6534,3169 6534,2677 6586,2193 6684,1767 6783,1340 6925,986 7095,740 7266,494 7459,364 7656,364 7854,364 8047,494 8218,740 8388,986 8530,1340 8629,1766 8727,2193 8779,2677 8779,3169 8779,3661 8727,4145 8629,4571 8530,4998 8388,5352 8218,5598 8047,5844 7854,5974 7657,5974 L 7656,5974 Z "/>
          </g>
         </g>
        </g>
        <g class="com.sun.star.drawing.CustomShape">
         <g id="id10">
          <rect class="BoundingBox" stroke="none" fill="none" x="7120" y="364" width="2245" height="5611"/>
          <path fill="rgb(161,70,126)" stroke="none" d="M 8242,364 C 8439,364 8632,494 8803,740 8974,986 9115,1340 9214,1766 9312,2193 9364,2677 9364,3169 9364,3661 9312,4145 9214,4571 9115,4998 8974,5352 8803,5598 8632,5844 8439,5974 8242,5974 8045,5974 7852,5844 7681,5598 7510,5352 7369,4998 7270,4572 7172,4145 7120,3661 7120,3169 7120,2677 7172,2193 7270,1767 7369,1340 7510,986 7681,740 7852,494 8045,364 8242,364 L 8242,364 Z "/>
         </g>
        </g>
        <g class="com.sun.star.drawing.CustomShape">
         <g id="id11">
          <rect class="BoundingBox" stroke="none" fill="none" x="7728" y="364" width="2245" height="5611"/>
          <path fill="rgb(120,3,115)" stroke="none" d="M 8850,364 C 9047,364 9240,494 9411,740 9582,986 9723,1340 9822,1766 9920,2193 9972,2677 9972,3169 9972,3661 9920,4145 9822,4571 9723,4998 9582,5352 9411,5598 9240,5844 9047,5974 8850,5974 8653,5974 8460,5844 8289,5598 8118,5352 7977,4998 7878,4572 7780,4145 7728,3661 7728,3169 7728,2677 7780,2193 7878,1767 7977,1340 8118,986 8289,740 8460,494 8653,364 8850,364 L 8850,364 Z "/>
         </g>
        </g>
       </g>
      </g>
     </g>
    </g>
   </g>
  </g>
 </g>
</svg>