<?xml version="1.0" encoding="UTF-8"?>
<!DOCTYPE svg PUBLIC "-//W3C//DTD SVG 1.1//EN" "http://www.w3.org/Graphics/SVG/1.1/DTD/svg11.dtd">
<svg version="1.2" width="100mm" height="100mm" viewBox="0 0 10000 10000" preserveAspectRatio="xMidYMid" fill-rule="evenodd" stroke-width="28.222" stroke-linejoin="round" xmlns="http://www.w3.org/2000/svg" xmlns:ooo="http://xml.openoffice.org/svg/export" xmlns:xlink="http://www.w3.org/1999/xlink" xmlns:presentation="http://sun.com/xmlns/staroffice/presentation" xmlns:smil="http://www.w3.org/2001/SMIL20/" xmlns:anim="urn:oasis:names:tc:opendocument:xmlns:animation:1.0" xmlns:svg="urn:oasis:names:tc:opendocument:xmlns:svg-compatible:1.0" xml:space="preserve">
 <defs class="ClipPathGroup">
  <clipPath id="presentation_clip_path" clipPathUnits="userSpaceOnUse">
   <rect x="0" y="0" width="10000" height="10000"/>
  </clipPath>
  <clipPath id="presentation_clip_path_shrink" clipPathUnits="userSpaceOnUse">
   <rect x="10" y="10" width="9980" height="9980"/>
  </clipPath>
 </defs>
 <defs class="TextShapeIndex">
  <g ooo:slide="id1" ooo:id-list="id3 id4 id5 id6 id7 id8 id9 id10 id11 id12"/>
 </defs>
 <defs class="EmbeddedBulletChars">
  <g id="bullet-char-template-57356" transform="scale(0.00048828125,-0.00048828125)">
   <path d="M 580,1141 L 1163,571 580,0 -4,571 580,1141 Z"/>
  </g>
  <g id="bullet-char-template-57354" transform="scale(0.00048828125,-0.00048828125)">
   <path d="M 8,1128 L 1137,1128 1137,0 8,0 8,1128 Z"/>
  </g>
  <g id="bullet-char-template-10146" transform="scale(0.00048828125,-0.00048828125)">
   <path d="M 174,0 L 602,739 174,1481 1456,739 174,0 Z M 1358,739 L 309,1346 659,739 1358,739 Z"/>
  </g>
  <g id="bullet-char-template-10132" transform="scale(0.00048828125,-0.00048828125)">
   <path d="M 2015,739 L 1276,0 717,0 1260,543 174,543 174,936 1260,936 717,1481 1274,1481 2015,739 Z"/>
  </g>
  <g id="bullet-char-template-10007" transform="scale(0.00048828125,-0.00048828125)">
   <path d="M 0,-2 C -7,14 -16,27 -25,37 L 356,567 C 262,823 215,952 215,954 215,979 228,992 255,992 264,992 276,990 289,987 310,991 331,999 354,1012 L 381,999 492,748 772,1049 836,1024 860,1049 C 881,1039 901,1025 922,1006 886,937 835,863 770,784 769,783 710,716 594,584 L 774,223 C 774,196 753,168 711,139 L 727,119 C 717,90 699,76 672,76 641,76 570,178 457,381 L 164,-76 C 142,-110 111,-127 72,-127 30,-127 9,-110 8,-76 1,-67 -2,-52 -2,-32 -2,-23 -1,-13 0,-2 Z"/>
  </g>
  <g id="bullet-char-template-10004" transform="scale(0.00048828125,-0.00048828125)">
   <path d="M 285,-33 C 182,-33 111,30 74,156 52,228 41,333 41,471 41,549 55,616 82,672 116,743 169,778 240,778 293,778 328,747 346,684 L 369,508 C 377,444 397,411 428,410 L 1163,1116 C 1174,1127 1196,1133 1229,1133 1271,1133 1292,1118 1292,1087 L 1292,965 C 1292,929 1282,901 1262,881 L 442,47 C 390,-6 338,-33 285,-33 Z"/>
  </g>
  <g id="bullet-char-template-9679" transform="scale(0.00048828125,-0.00048828125)">
   <path d="M 813,0 C 632,0 489,54 383,161 276,268 223,411 223,592 223,773 276,916 383,1023 489,1130 632,1184 813,1184 992,1184 1136,1130 1245,1023 1353,916 1407,772 1407,592 1407,412 1353,268 1245,161 1136,54 992,0 813,0 Z"/>
  </g>
  <g id="bullet-char-template-8226" transform="scale(0.00048828125,-0.00048828125)">
   <path d="M 346,457 C 273,457 209,483 155,535 101,586 74,649 74,723 74,796 101,859 155,911 209,963 273,989 346,989 419,989 480,963 531,910 582,859 608,796 608,723 608,648 583,586 532,535 482,483 420,457 346,457 Z"/>
  </g>
  <g id="bullet-char-template-8211" transform="scale(0.00048828125,-0.00048828125)">
   <path d="M -4,459 L 1135,459 1135,606 -4,606 -4,459 Z"/>
  </g>
  <g id="bullet-char-template-61548" transform="scale(0.00048828125,-0.00048828125)">
   <path d="M 173,740 C 173,903 231,1043 346,1159 462,1274 601,1332 765,1332 928,1332 1067,1274 1183,1159 1299,1043 1357,903 1357,740 1357,577 1299,437 1183,322 1067,206 928,148 765,148 601,148 462,206 346,322 231,437 173,577 173,740 Z"/>
  </g>
 </defs>
 <g>
  <g id="id2" class="Master_Slide">
   <g id="bg-id2" class="Background"/>
   <g id="bo-id2" class="BackgroundObjects"/>
  </g>
 </g>
 <g class="SlideGroup">
  <g>
   <g id="container-id1">
    <g id="id1" class="Slide" clip-path="url(#presentation_clip_path)">
     <g class="Page">
      <g class="Group">
       <g class="com.sun.star.drawing.ClosedBezierShape">
        <g id="id3">
         <rect class="BoundingBox" stroke="none" fill="none" x="265" y="365" width="5050" height="5048"/>
         <path fill="rgb(161,70,126)" stroke="none" d="M 5314,5412 L 273,5412 C 268,5319 265,5227 265,5134 265,4297 485,3474 904,2749 1322,2024 1924,1422 2649,1004 3374,585 4197,365 5034,365 5127,365 5221,368 5314,373 L 5314,5412 Z "/>
        </g>
       </g>
       <g class="Group">
        <g class="com.sun.star.drawing.CustomShape">
         <g id="id4">
          <rect class="BoundingBox" stroke="none" fill="none" x="266" y="7504" width="5611" height="2246"/>
          <path fill="rgb(161,70,126)" stroke="none" d="M 266,8627 C 266,8429 396,8236 642,8065 888,7895 1242,7753 1668,7654 2095,7556 2578,7504 3070,7504 3563,7504 4046,7556 4473,7654 4899,7753 5253,7895 5499,8065 5745,8236 5875,8429 5875,8627 5875,8824 5745,9017 5499,9188 5253,9358 4899,9500 4473,9599 4046,9697 3563,9749 3071,9749 2578,9749 2095,9697 1668,9599 1242,9500 888,9358 642,9188 396,9017 266,8824 266,8627 L 266,8627 Z "/>
         </g>
        </g>
        <g class="com.sun.star.drawing.CustomShape">
         <g id="id5">
          <rect class="BoundingBox" stroke="none" fill="none" x="266" y="6896" width="5611" height="2246"/>
          <path fill="rgb(120,3,115)" stroke="none" d="M 266,8019 C 266,7821 396,7628 642,7457 888,7287 1242,7145 1668,7046 2095,6948 2578,6896 3070,6896 3563,6896 4046,6948 4473,7046 4899,7145 5253,7287 5499,7457 5745,7628 5875,7821 5875,8019 5875,8216 5745,8409 5499,8580 5253,8750 4899,8892 4473,8991 4046,9089 3563,9141 3071,9141 2578,9141 2095,9089 1668,8991 1242,8892 888,8750 642,8580 396,8409 266,8216 266,8019 L 266,8019 Z "/>
         </g>
        </g>
        <g class="com.sun.star.drawing.CustomShape">
         <g id="id6">
          <rect class="BoundingBox" stroke="none" fill="none" x="266" y="6134" width="5611" height="2246"/>
          <path fill="rgb(161,70,126)" stroke="none" d="M 266,7257 C 266,7059 396,6866 642,6695 888,6525 1242,6383 1668,6284 2095,6186 2578,6134 3070,6134 3563,6134 4046,6186 4473,6284 4899,6383 5253,6525 5499,6695 5745,6866 5875,7059 5875,7257 5875,7454 5745,7647 5499,7818 5253,7988 4899,8130 4473,8229 4046,8327 3563,8379 3071,8379 2578,8379 2095,8327 1668,8229 1242,8130 888,7988 642,7818 396,7647 266,7454 266,7257 L 266,7257 Z "/>
         </g>
        </g>
        <g class="com.sun.star.drawing.CustomShape">
         <g id="id7">
          <rect class="BoundingBox" stroke="none" fill="none" x="267" y="5013" width="5609" height="2246"/>
          <path fill="rgb(161,70,126)" stroke="none" d="M 267,6136 L 267,5013 5875,5013 5875,7258 267,7258 267,6136 Z "/>
         </g>
        </g>
        <g class="com.sun.star.drawing.CustomShape">
         <g id="id8">
          <rect class="BoundingBox" stroke="none" fill="none" x="5027" y="364" width="2533" height="5610"/>
          <path fill="rgb(161,70,126)" stroke="none" d="M 6293,5973 L 5027,5973 5027,364 7559,364 7559,5973 6293,5973 Z "/>
         </g>
        </g>
        <g class="com.sun.star.drawing.CustomShape">
         <g id="id9">
          <rect class="BoundingBox" stroke="none" fill="none" x="6433" y="364" width="2247" height="5611"/>
          <path fill="rgb(120,3,115)" stroke="none" d="M 7556,5974 C 7359,5974 7166,5844 6995,5598 6825,5352 6683,4998 6584,4572 6486,4145 6434,3661 6434,3169 6434,2677 6486,2193 6584,1767 6683,1340 6825,986 6995,740 7166,494 7359,364 7556,364 7754,364 7947,494 8118,740 8288,986 8430,1340 8529,1766 8627,2193 8679,2677 8679,3169 8679,3661 8627,4145 8529,4571 8430,4998 8288,5352 8118,5598 7947,5844 7754,5974 7557,5974 L 7556,5974 Z "/>
         </g>
        </g>
        <g class="com.sun.star.drawing.CustomShape">
         <g id="id10">
          <rect class="BoundingBox" stroke="none" fill="none" x="7020" y="364" width="2245" height="5611"/>
          <path fill="rgb(161,70,126)" stroke="none" d="M 8142,364 C 8339,364 8532,494 8703,740 8874,986 9015,1340 9114,1766 9212,2193 9264,2677 9264,3169 9264,3661 9212,4145 9114,4571 9015,4998 8874,5352 8703,5598 8532,5844 8339,5974 8142,5974 7945,5974 7752,5844 7581,5598 7410,5352 7269,4998 7170,4572 7072,4145 7020,3661 7020,3169 7020,2677 7072,2193 7170,1767 7269,1340 7410,986 7581,740 7752,494 7945,364 8142,364 L 8142,364 Z "/>
         </g>
        </g>
        <g class="com.sun.star.drawing.CustomShape">
         <g id="id11">
          <rect class="BoundingBox" stroke="none" fill="none" x="7628" y="364" width="2245" height="5611"/>
          <path fill="rgb(120,3,115)" stroke="none" d="M 8750,364 C 8947,364 9140,494 9311,740 9482,986 9623,1340 9722,1766 9820,2193 9872,2677 9872,3169 9872,3661 9820,4145 9722,4571 9623,4998 9482,5352 9311,5598 9140,5844 8947,5974 8750,5974 8553,5974 8360,5844 8189,5598 8018,5352 7877,4998 7778,4572 7680,4145 7628,3661 7628,3169 7628,2677 7680,2193 7778,1767 7877,1340 8018,986 8189,740 8360,494 8553,364 8750,364 L 8750,364 Z "/>
         </g>
        </g>
        <g class="com.sun.star.drawing.ClosedBezierShape">
         <g id="id12">
          <rect class="BoundingBox" stroke="none" fill="none" x="3332" y="5972" width="2551" height="2407"/>
          <g>
           <defs>
            <linearGradient id="gradient1" x1="3332" y1="7175" x2="5882" y2="7175" gradientUnits="userSpaceOnUse">
             <stop offset="0" style="stop-color:rgb(161,70,126)"/>
             <stop offset="1" style="stop-color:rgb(120,3,115)"/>
            </linearGradient>
           </defs>
           <path style="fill:url(#gradient1)" d="M 3474,6843 L 3535,6746 3601,6653 3674,6565 3752,6482 3835,6404 3923,6331 4016,6265 4113,6204 4203,6156 4295,6113 4390,6075 4486,6043 4584,6017 4683,5997 4783,5982 4885,5973 5882,5973 5882,7263 5882,7265 5882,7265 5880,7301 5876,7338 5868,7374 5858,7411 5844,7447 5828,7483 5808,7518 5786,7553 5761,7588 5733,7623 5668,7691 5593,7758 5506,7823 5409,7885 5302,7945 5185,8001 5060,8054 4926,8104 4785,8151 4635,8193 4479,8232 4208,8287 3924,8330 3632,8360 3332,8377 3332,7157 3362,7076 3395,6997 3433,6919 3474,6843 Z "/>
          </g>
         </g>
        </g>
       </g>
      </g>
     </g>
    </g>
   </g>
  </g>
 </g>
</svg>