<?xml version="1.0" encoding="UTF-8"?>
<!DOCTYPE svg PUBLIC "-//W3C//DTD SVG 1.1//EN" "http://www.w3.org/Graphics/SVG/1.1/DTD/svg11.dtd">
<svg version="1.2" width="500mm" height="100mm" viewBox="0 0 50000 10000" preserveAspectRatio="xMidYMid" fill-rule="evenodd" stroke-width="28.222" stroke-linejoin="round" xmlns="http://www.w3.org/2000/svg" xmlns:ooo="http://xml.openoffice.org/svg/export" xmlns:xlink="http://www.w3.org/1999/xlink" xmlns:presentation="http://sun.com/xmlns/staroffice/presentation" xmlns:smil="http://www.w3.org/2001/SMIL20/" xmlns:anim="urn:oasis:names:tc:opendocument:xmlns:animation:1.0" xmlns:svg="urn:oasis:names:tc:opendocument:xmlns:svg-compatible:1.0" xml:space="preserve">
 <defs class="ClipPathGroup">
  <clipPath id="presentation_clip_path" clipPathUnits="userSpaceOnUse">
   <rect x="0" y="0" width="50000" height="10000"/>
  </clipPath>
  <clipPath id="presentation_clip_path_shrink" clipPathUnits="userSpaceOnUse">
   <rect x="50" y="10" width="49900" height="9980"/>
  </clipPath>
 </defs>
 <defs class="TextShapeIndex">
  <g ooo:slide="id1" ooo:id-list="id3 id4 id5 id6 id7 id8 id9 id10 id11 id12"/>
 </defs>
 <defs class="EmbeddedBulletChars">
  <g id="bullet-char-template-57356" transform="scale(0.00048828125,-0.00048828125)">
   <path d="M 580,1141 L 1163,571 580,0 -4,571 580,1141 Z"/>
  </g>
  <g id="bullet-char-template-57354" transform="scale(0.00048828125,-0.00048828125)">
   <path d="M 8,1128 L 1137,1128 1137,0 8,0 8,1128 Z"/>
  </g>
  <g id="bullet-char-template-10146" transform="scale(0.00048828125,-0.00048828125)">
   <path d="M 174,0 L 602,739 174,1481 1456,739 174,0 Z M 1358,739 L 309,1346 659,739 1358,739 Z"/>
  </g>
  <g id="bullet-char-template-10132" transform="scale(0.00048828125,-0.00048828125)">
   <path d="M 2015,739 L 1276,0 717,0 1260,543 174,543 174,936 1260,936 717,1481 1274,1481 2015,739 Z"/>
  </g>
  <g id="bullet-char-template-10007" transform="scale(0.00048828125,-0.00048828125)">
   <path d="M 0,-2 C -7,14 -16,27 -25,37 L 356,567 C 262,823 215,952 215,954 215,979 228,992 255,992 264,992 276,990 289,987 310,991 331,999 354,1012 L 381,999 492,748 772,1049 836,1024 860,1049 C 881,1039 901,1025 922,1006 886,937 835,863 770,784 769,783 710,716 594,584 L 774,223 C 774,196 753,168 711,139 L 727,119 C 717,90 699,76 672,76 641,76 570,178 457,381 L 164,-76 C 142,-110 111,-127 72,-127 30,-127 9,-110 8,-76 1,-67 -2,-52 -2,-32 -2,-23 -1,-13 0,-2 Z"/>
  </g>
  <g id="bullet-char-template-10004" transform="scale(0.00048828125,-0.00048828125)">
   <path d="M 285,-33 C 182,-33 111,30 74,156 52,228 41,333 41,471 41,549 55,616 82,672 116,743 169,778 240,778 293,778 328,747 346,684 L 369,508 C 377,444 397,411 428,410 L 1163,1116 C 1174,1127 1196,1133 1229,1133 1271,1133 1292,1118 1292,1087 L 1292,965 C 1292,929 1282,901 1262,881 L 442,47 C 390,-6 338,-33 285,-33 Z"/>
  </g>
  <g id="bullet-char-template-9679" transform="scale(0.00048828125,-0.00048828125)">
   <path d="M 813,0 C 632,0 489,54 383,161 276,268 223,411 223,592 223,773 276,916 383,1023 489,1130 632,1184 813,1184 992,1184 1136,1130 1245,1023 1353,916 1407,772 1407,592 1407,412 1353,268 1245,161 1136,54 992,0 813,0 Z"/>
  </g>
  <g id="bullet-char-template-8226" transform="scale(0.00048828125,-0.00048828125)">
   <path d="M 346,457 C 273,457 209,483 155,535 101,586 74,649 74,723 74,796 101,859 155,911 209,963 273,989 346,989 419,989 480,963 531,910 582,859 608,796 608,723 608,648 583,586 532,535 482,483 420,457 346,457 Z"/>
  </g>
  <g id="bullet-char-template-8211" transform="scale(0.00048828125,-0.00048828125)">
   <path d="M -4,459 L 1135,459 1135,606 -4,606 -4,459 Z"/>
  </g>
  <g id="bullet-char-template-61548" transform="scale(0.00048828125,-0.00048828125)">
   <path d="M 173,740 C 173,903 231,1043 346,1159 462,1274 601,1332 765,1332 928,1332 1067,1274 1183,1159 1299,1043 1357,903 1357,740 1357,577 1299,437 1183,322 1067,206 928,148 765,148 601,148 462,206 346,322 231,437 173,577 173,740 Z"/>
  </g>
 </defs>
 <g>
  <g id="id2" class="Master_Slide">
   <g id="bg-id2" class="Background"/>
   <g id="bo-id2" class="BackgroundObjects"/>
  </g>
 </g>
 <g class="SlideGroup">
  <g>
   <g id="container-id1">
    <g id="id1" class="Slide" clip-path="url(#presentation_clip_path)">
     <g class="Page">
      <g class="Group">
       <g class="com.sun.star.drawing.ClosedBezierShape">
        <g id="id3">
         <rect class="BoundingBox" stroke="none" fill="none" x="20632" y="365" width="5050" height="5048"/>
         <path fill="rgb(161,70,126)" stroke="none" d="M 25681,5412 L 20640,5412 C 20635,5319 20632,5227 20632,5134 20632,4297 20852,3474 21271,2749 21689,2024 22291,1422 23016,1004 23741,585 24564,365 25401,365 25494,365 25588,368 25681,373 L 25681,5412 Z "/>
        </g>
       </g>
       <g class="Group">
        <g class="com.sun.star.drawing.CustomShape">
         <g id="id4">
          <rect class="BoundingBox" stroke="none" fill="none" x="20633" y="7504" width="5610" height="2246"/>
          <path fill="rgb(161,70,126)" stroke="none" d="M 20633,8627 C 20633,8429 20763,8236 21009,8065 21255,7895 21609,7753 22035,7654 22462,7556 22945,7504 23438,7504 23930,7504 24413,7556 24840,7654 25266,7753 25620,7895 25866,8065 26112,8236 26242,8429 26242,8627 26242,8824 26112,9017 25866,9188 25620,9358 25266,9500 24840,9599 24413,9697 23930,9749 23438,9749 22945,9749 22462,9697 22035,9599 21609,9500 21255,9358 21009,9188 20763,9017 20633,8824 20633,8627 L 20633,8627 Z "/>
         </g>
        </g>
        <g class="com.sun.star.drawing.CustomShape">
         <g id="id5">
          <rect class="BoundingBox" stroke="none" fill="none" x="20633" y="6896" width="5610" height="2246"/>
          <path fill="rgb(120,3,115)" stroke="none" d="M 20633,8019 C 20633,7821 20763,7628 21009,7457 21255,7287 21609,7145 22035,7046 22462,6948 22945,6896 23438,6896 23930,6896 24413,6948 24840,7046 25266,7145 25620,7287 25866,7457 26112,7628 26242,7821 26242,8019 26242,8216 26112,8409 25866,8580 25620,8750 25266,8892 24840,8991 24413,9089 23930,9141 23438,9141 22945,9141 22462,9089 22035,8991 21609,8892 21255,8750 21009,8580 20763,8409 20633,8216 20633,8019 L 20633,8019 Z "/>
         </g>
        </g>
        <g class="com.sun.star.drawing.CustomShape">
         <g id="id6">
          <rect class="BoundingBox" stroke="none" fill="none" x="20633" y="6134" width="5610" height="2246"/>
          <path fill="rgb(161,70,126)" stroke="none" d="M 20633,7257 C 20633,7059 20763,6866 21009,6695 21255,6525 21609,6383 22035,6284 22462,6186 22945,6134 23438,6134 23930,6134 24413,6186 24840,6284 25266,6383 25620,6525 25866,6695 26112,6866 26242,7059 26242,7257 26242,7454 26112,7647 25866,7818 25620,7988 25266,8130 24840,8229 24413,8327 23930,8379 23438,8379 22945,8379 22462,8327 22035,8229 21609,8130 21255,7988 21009,7818 20763,7647 20633,7454 20633,7257 L 20633,7257 Z "/>
         </g>
        </g>
        <g class="com.sun.star.drawing.CustomShape">
         <g id="id7">
          <rect class="BoundingBox" stroke="none" fill="none" x="20634" y="5013" width="5609" height="2246"/>
          <path fill="rgb(161,70,126)" stroke="none" d="M 20634,6136 L 20634,5013 26242,5013 26242,7258 20634,7258 20634,6136 Z "/>
         </g>
        </g>
        <g class="com.sun.star.drawing.CustomShape">
         <g id="id8">
          <rect class="BoundingBox" stroke="none" fill="none" x="25394" y="364" width="2533" height="5610"/>
          <path fill="rgb(161,70,126)" stroke="none" d="M 26660,5973 L 25394,5973 25394,364 27926,364 27926,5973 26660,5973 Z "/>
         </g>
        </g>
        <g class="com.sun.star.drawing.CustomShape">
         <g id="id9">
          <rect class="BoundingBox" stroke="none" fill="none" x="26801" y="364" width="2246" height="5611"/>
          <path fill="rgb(120,3,115)" stroke="none" d="M 27924,5974 C 27726,5974 27533,5844 27362,5598 27192,5352 27050,4998 26951,4572 26853,4145 26801,3661 26801,3169 26801,2677 26853,2193 26951,1767 27050,1340 27192,986 27362,740 27533,494 27726,364 27924,364 28121,364 28314,494 28485,740 28655,986 28797,1340 28896,1766 28994,2193 29046,2677 29046,3169 29046,3661 28994,4145 28896,4571 28797,4998 28655,5352 28485,5598 28314,5844 28121,5974 27924,5974 L 27924,5974 Z "/>
         </g>
        </g>
        <g class="com.sun.star.drawing.CustomShape">
         <g id="id10">
          <rect class="BoundingBox" stroke="none" fill="none" x="27387" y="364" width="2245" height="5611"/>
          <path fill="rgb(161,70,126)" stroke="none" d="M 28509,364 C 28706,364 28899,494 29070,740 29241,986 29382,1340 29481,1766 29579,2193 29631,2677 29631,3169 29631,3661 29579,4145 29481,4571 29382,4998 29241,5352 29070,5598 28899,5844 28706,5974 28509,5974 28312,5974 28119,5844 27948,5598 27777,5352 27636,4998 27537,4572 27439,4145 27387,3661 27387,3169 27387,2677 27439,2193 27537,1767 27636,1340 27777,986 27948,740 28119,494 28312,364 28509,364 L 28509,364 Z "/>
         </g>
        </g>
        <g class="com.sun.star.drawing.CustomShape">
         <g id="id11">
          <rect class="BoundingBox" stroke="none" fill="none" x="27995" y="364" width="2245" height="5611"/>
          <path fill="rgb(120,3,115)" stroke="none" d="M 29117,364 C 29314,364 29507,494 29678,740 29849,986 29990,1340 30089,1766 30187,2193 30239,2677 30239,3169 30239,3661 30187,4145 30089,4571 29990,4998 29849,5352 29678,5598 29507,5844 29314,5974 29117,5974 28920,5974 28727,5844 28556,5598 28385,5352 28244,4998 28145,4572 28047,4145 27995,3661 27995,3169 27995,2677 28047,2193 28145,1767 28244,1340 28385,986 28556,740 28727,494 28920,364 29117,364 L 29117,364 Z "/>
         </g>
        </g>
        <g class="com.sun.star.drawing.ClosedBezierShape">
         <g id="id12">
          <rect class="BoundingBox" stroke="none" fill="none" x="23699" y="5972" width="2551" height="2407"/>
          <g>
           <defs>
            <linearGradient id="gradient1" x1="23699" y1="7175" x2="26249" y2="7175" gradientUnits="userSpaceOnUse">
             <stop offset="0" style="stop-color:rgb(161,70,126)"/>
             <stop offset="1" style="stop-color:rgb(120,3,115)"/>
            </linearGradient>
           </defs>
           <path style="fill:url(#gradient1)" d="M 23841,6843 L 23902,6746 23968,6653 24041,6565 24119,6482 24202,6404 24290,6331 24383,6265 24480,6204 24570,6156 24662,6113 24757,6075 24853,6043 24951,6017 25050,5997 25150,5982 25252,5973 26249,5973 26249,7263 26249,7265 26249,7265 26247,7301 26243,7338 26235,7374 26225,7411 26211,7447 26195,7483 26175,7518 26153,7553 26128,7588 26100,7623 26035,7691 25960,7758 25873,7823 25776,7885 25669,7945 25552,8001 25427,8054 25293,8104 25152,8151 25002,8193 24846,8232 24575,8287 24291,8330 23999,8360 23699,8377 23699,7157 23729,7076 23762,6997 23800,6919 23841,6843 Z "/>
          </g>
         </g>
        </g>
       </g>
      </g>
     </g>
    </g>
   </g>
  </g>
 </g>
</svg>