<?xml version="1.0" encoding="UTF-8"?>
<!DOCTYPE svg PUBLIC "-//W3C//DTD SVG 1.1//EN" "http://www.w3.org/Graphics/SVG/1.1/DTD/svg11.dtd">
<svg version="1.2" width="500mm" height="100mm" viewBox="0 0 50000 10000" preserveAspectRatio="xMidYMid" fill-rule="evenodd" stroke-width="28.222" stroke-linejoin="round" xmlns="http://www.w3.org/2000/svg" xmlns:ooo="http://xml.openoffice.org/svg/export" xmlns:xlink="http://www.w3.org/1999/xlink" xmlns:presentation="http://sun.com/xmlns/staroffice/presentation" xmlns:smil="http://www.w3.org/2001/SMIL20/" xmlns:anim="urn:oasis:names:tc:opendocument:xmlns:animation:1.0" xmlns:svg="urn:oasis:names:tc:opendocument:xmlns:svg-compatible:1.0" xml:space="preserve">
 <defs class="ClipPathGroup">
  <clipPath id="presentation_clip_path" clipPathUnits="userSpaceOnUse">
   <rect x="0" y="0" width="50000" height="10000"/>
  </clipPath>
  <clipPath id="presentation_clip_path_shrink" clipPathUnits="userSpaceOnUse">
   <rect x="50" y="10" width="49900" height="9980"/>
  </clipPath>
 </defs>
 <defs class="TextShapeIndex">
  <g ooo:slide="id1" ooo:id-list="id3 id4 id5 id6 id7 id8 id9 id10 id11"/>
 </defs>
 <defs class="EmbeddedBulletChars">
  <g id="bullet-char-template-57356" transform="scale(0.00048828125,-0.00048828125)">
   <path d="M 580,1141 L 1163,571 580,0 -4,571 580,1141 Z"/>
  </g>
  <g id="bullet-char-template-57354" transform="scale(0.00048828125,-0.00048828125)">
   <path d="M 8,1128 L 1137,1128 1137,0 8,0 8,1128 Z"/>
  </g>
  <g id="bullet-char-template-10146" transform="scale(0.00048828125,-0.00048828125)">
   <path d="M 174,0 L 602,739 174,1481 1456,739 174,0 Z M 1358,739 L 309,1346 659,739 1358,739 Z"/>
  </g>
  <g id="bullet-char-template-10132" transform="scale(0.00048828125,-0.00048828125)">
   <path d="M 2015,739 L 1276,0 717,0 1260,543 174,543 174,936 1260,936 717,1481 1274,1481 2015,739 Z"/>
  </g>
  <g id="bullet-char-template-10007" transform="scale(0.00048828125,-0.00048828125)">
   <path d="M 0,-2 C -7,14 -16,27 -25,37 L 356,567 C 262,823 215,952 215,954 215,979 228,992 255,992 264,992 276,990 289,987 310,991 331,999 354,1012 L 381,999 492,748 772,1049 836,1024 860,1049 C 881,1039 901,1025 922,1006 886,937 835,863 770,784 769,783 710,716 594,584 L 774,223 C 774,196 753,168 711,139 L 727,119 C 717,90 699,76 672,76 641,76 570,178 457,381 L 164,-76 C 142,-110 111,-127 72,-127 30,-127 9,-110 8,-76 1,-67 -2,-52 -2,-32 -2,-23 -1,-13 0,-2 Z"/>
  </g>
  <g id="bullet-char-template-10004" transform="scale(0.00048828125,-0.00048828125)">
   <path d="M 285,-33 C 182,-33 111,30 74,156 52,228 41,333 41,471 41,549 55,616 82,672 116,743 169,778 240,778 293,778 328,747 346,684 L 369,508 C 377,444 397,411 428,410 L 1163,1116 C 1174,1127 1196,1133 1229,1133 1271,1133 1292,1118 1292,1087 L 1292,965 C 1292,929 1282,901 1262,881 L 442,47 C 390,-6 338,-33 285,-33 Z"/>
  </g>
  <g id="bullet-char-template-9679" transform="scale(0.00048828125,-0.00048828125)">
   <path d="M 813,0 C 632,0 489,54 383,161 276,268 223,411 223,592 223,773 276,916 383,1023 489,1130 632,1184 813,1184 992,1184 1136,1130 1245,1023 1353,916 1407,772 1407,592 1407,412 1353,268 1245,161 1136,54 992,0 813,0 Z"/>
  </g>
  <g id="bullet-char-template-8226" transform="scale(0.00048828125,-0.00048828125)">
   <path d="M 346,457 C 273,457 209,483 155,535 101,586 74,649 74,723 74,796 101,859 155,911 209,963 273,989 346,989 419,989 480,963 531,910 582,859 608,796 608,723 608,648 583,586 532,535 482,483 420,457 346,457 Z"/>
  </g>
  <g id="bullet-char-template-8211" transform="scale(0.00048828125,-0.00048828125)">
   <path d="M -4,459 L 1135,459 1135,606 -4,606 -4,459 Z"/>
  </g>
  <g id="bullet-char-template-61548" transform="scale(0.00048828125,-0.00048828125)">
   <path d="M 173,740 C 173,903 231,1043 346,1159 462,1274 601,1332 765,1332 928,1332 1067,1274 1183,1159 1299,1043 1357,903 1357,740 1357,577 1299,437 1183,322 1067,206 928,148 765,148 601,148 462,206 346,322 231,437 173,577 173,740 Z"/>
  </g>
 </defs>
 <g>
  <g id="id2" class="Master_Slide">
   <g id="bg-id2" class="Background"/>
   <g id="bo-id2" class="BackgroundObjects"/>
  </g>
 </g>
 <g class="SlideGroup">
  <g>
   <g id="container-id1">
    <g id="id1" class="Slide" clip-path="url(#presentation_clip_path)">
     <g class="Page">
      <g class="Group">
       <g class="com.sun.star.drawing.ClosedBezierShape">
        <g id="id3">
         <rect class="BoundingBox" stroke="none" fill="none" x="21000" y="500" width="4731" height="4842"/>
         <path fill="rgb(161,70,126)" stroke="none" d="M 25730,5340 L 21007,5340 C 21003,5251 21000,5163 21000,5074 21000,4271 21206,3482 21599,2786 21990,2091 22554,1514 23233,1113 23913,711 24684,500 25468,500 25555,500 25643,503 25730,508 L 25730,5340 Z "/>
        </g>
       </g>
       <g class="Group">
        <g class="com.sun.star.drawing.CustomShape">
         <g id="id4">
          <rect class="BoundingBox" stroke="none" fill="none" x="21001" y="7347" width="5256" height="2154"/>
          <path fill="rgb(161,70,126)" stroke="none" d="M 21001,8424 C 21001,8235 21122,8049 21353,7885 21584,7722 21915,7586 22315,7491 22714,7397 23167,7347 23628,7347 24089,7347 24542,7397 24942,7491 25341,7586 25672,7722 25903,7885 26134,8049 26255,8235 26255,8424 26255,8612 26134,8798 25903,8962 25672,9125 25341,9261 24942,9356 24542,9450 24089,9500 23628,9500 23167,9500 22714,9450 22315,9356 21915,9261 21584,9125 21353,8962 21122,8798 21001,8612 21001,8424 L 21001,8424 Z "/>
         </g>
        </g>
        <g class="com.sun.star.drawing.CustomShape">
         <g id="id5">
          <rect class="BoundingBox" stroke="none" fill="none" x="21001" y="6764" width="5256" height="2154"/>
          <path fill="rgb(120,3,115)" stroke="none" d="M 21001,7841 C 21001,7652 21122,7466 21353,7302 21584,7139 21915,7003 22315,6908 22714,6814 23167,6764 23628,6764 24089,6764 24542,6814 24942,6908 25341,7003 25672,7139 25903,7302 26134,7466 26255,7652 26255,7841 26255,8029 26134,8215 25903,8379 25672,8542 25341,8678 24942,8773 24542,8867 24089,8917 23628,8917 23167,8917 22714,8867 22315,8773 21915,8678 21584,8542 21353,8379 21122,8215 21001,8029 21001,7841 L 21001,7841 Z "/>
         </g>
        </g>
        <g class="com.sun.star.drawing.CustomShape">
         <g id="id6">
          <rect class="BoundingBox" stroke="none" fill="none" x="21001" y="6033" width="5256" height="2154"/>
          <path fill="rgb(161,70,126)" stroke="none" d="M 21001,7110 C 21001,6921 21122,6735 21353,6571 21584,6408 21915,6272 22315,6177 22714,6083 23167,6033 23628,6033 24089,6033 24542,6083 24942,6177 25341,6272 25672,6408 25903,6571 26134,6735 26255,6921 26255,7110 26255,7298 26134,7484 25903,7648 25672,7811 25341,7947 24942,8042 24542,8136 24089,8186 23628,8186 23167,8186 22714,8136 22315,8042 21915,7947 21584,7811 21353,7648 21122,7484 21001,7298 21001,7110 L 21001,7110 Z "/>
         </g>
        </g>
        <g class="com.sun.star.drawing.CustomShape">
         <g id="id7">
          <rect class="BoundingBox" stroke="none" fill="none" x="21002" y="4958" width="5254" height="2154"/>
          <path fill="rgb(161,70,126)" stroke="none" d="M 21002,6035 L 21002,4958 26255,4958 26255,7111 21002,7111 21002,6035 Z "/>
         </g>
        </g>
        <g class="Group">
         <g class="com.sun.star.drawing.CustomShape">
          <g id="id8">
           <rect class="BoundingBox" stroke="none" fill="none" x="25379" y="499" width="2454" height="5380"/>
           <path fill="rgb(161,70,126)" stroke="none" d="M 26606,5878 L 25379,5878 25379,499 27832,499 27832,5878 26606,5878 Z "/>
          </g>
         </g>
         <g class="com.sun.star.drawing.CustomShape">
          <g id="id9">
           <rect class="BoundingBox" stroke="none" fill="none" x="26779" y="498" width="2104" height="5382"/>
           <path fill="rgb(120,3,115)" stroke="none" d="M 27831,5879 C 27646,5879 27465,5755 27305,5519 27145,5283 27012,4943 26920,4534 26828,4125 26779,3661 26779,3189 26779,2717 26828,2253 26920,1844 27012,1435 27145,1095 27305,859 27465,623 27646,499 27831,499 28015,499 28196,623 28356,859 28516,1095 28649,1435 28741,1844 28833,2253 28882,2717 28882,3189 28882,3661 28833,4125 28741,4534 28649,4943 28516,5283 28356,5519 28196,5755 28015,5879 27831,5879 L 27831,5879 Z "/>
          </g>
         </g>
        </g>
        <g class="com.sun.star.drawing.CustomShape">
         <g id="id10">
          <rect class="BoundingBox" stroke="none" fill="none" x="27328" y="499" width="2104" height="5381"/>
          <path fill="rgb(161,70,126)" stroke="none" d="M 28379,499 C 28563,499 28745,623 28905,859 29064,1095 29197,1435 29289,1844 29381,2253 29430,2717 29430,3189 29430,3661 29381,4125 29289,4534 29197,4943 29064,5283 28905,5519 28745,5755 28563,5879 28379,5879 28195,5879 28013,5755 27854,5519 27694,5283 27561,4943 27469,4534 27377,4125 27328,3661 27328,3189 27328,2717 27377,2253 27469,1844 27561,1435 27694,1095 27854,859 28013,623 28195,499 28379,499 L 28379,499 Z "/>
         </g>
        </g>
        <g class="com.sun.star.drawing.CustomShape">
         <g id="id11">
          <rect class="BoundingBox" stroke="none" fill="none" x="27898" y="499" width="2103" height="5381"/>
          <path fill="rgb(120,3,115)" stroke="none" d="M 28949,499 C 29133,499 29315,623 29475,859 29634,1095 29767,1435 29859,1844 29951,2253 30000,2717 30000,3189 30000,3661 29951,4125 29859,4534 29767,4943 29634,5283 29475,5519 29315,5755 29133,5879 28949,5879 28765,5879 28583,5755 28424,5519 28264,5283 28131,4943 28039,4534 27947,4125 27898,3661 27898,3189 27898,2717 27947,2253 28039,1844 28131,1435 28264,1095 28424,859 28583,623 28765,499 28949,499 L 28949,499 Z "/>
         </g>
        </g>
       </g>
      </g>
     </g>
    </g>
   </g>
  </g>
 </g>
</svg>