<?xml version="1.0" encoding="UTF-8"?>
<!DOCTYPE svg PUBLIC "-//W3C//DTD SVG 1.1//EN" "http://www.w3.org/Graphics/SVG/1.1/DTD/svg11.dtd">
<svg version="1.2" width="300mm" height="100mm" viewBox="0 0 30000 10000" preserveAspectRatio="xMidYMid" fill-rule="evenodd" stroke-width="28.222" stroke-linejoin="round" xmlns="http://www.w3.org/2000/svg" xmlns:ooo="http://xml.openoffice.org/svg/export" xmlns:xlink="http://www.w3.org/1999/xlink" xmlns:presentation="http://sun.com/xmlns/staroffice/presentation" xmlns:smil="http://www.w3.org/2001/SMIL20/" xmlns:anim="urn:oasis:names:tc:opendocument:xmlns:animation:1.0" xmlns:svg="urn:oasis:names:tc:opendocument:xmlns:svg-compatible:1.0" xml:space="preserve">
 <defs class="ClipPathGroup">
  <clipPath id="presentation_clip_path" clipPathUnits="userSpaceOnUse">
   <rect x="0" y="0" width="30000" height="10000"/>
  </clipPath>
  <clipPath id="presentation_clip_path_shrink" clipPathUnits="userSpaceOnUse">
   <rect x="30" y="10" width="29940" height="9980"/>
  </clipPath>
 </defs>
 <defs class="TextShapeIndex">
  <g ooo:slide="id1" ooo:id-list="id3 id4 id5 id6 id7 id8 id9 id10 id11"/>
 </defs>
 <defs class="EmbeddedBulletChars">
  <g id="bullet-char-template-57356" transform="scale(0.00048828125,-0.00048828125)">
   <path d="M 580,1141 L 1163,571 580,0 -4,571 580,1141 Z"/>
  </g>
  <g id="bullet-char-template-57354" transform="scale(0.00048828125,-0.00048828125)">
   <path d="M 8,1128 L 1137,1128 1137,0 8,0 8,1128 Z"/>
  </g>
  <g id="bullet-char-template-10146" transform="scale(0.00048828125,-0.00048828125)">
   <path d="M 174,0 L 602,739 174,1481 1456,739 174,0 Z M 1358,739 L 309,1346 659,739 1358,739 Z"/>
  </g>
  <g id="bullet-char-template-10132" transform="scale(0.00048828125,-0.00048828125)">
   <path d="M 2015,739 L 1276,0 717,0 1260,543 174,543 174,936 1260,936 717,1481 1274,1481 2015,739 Z"/>
  </g>
  <g id="bullet-char-template-10007" transform="scale(0.00048828125,-0.00048828125)">
   <path d="M 0,-2 C -7,14 -16,27 -25,37 L 356,567 C 262,823 215,952 215,954 215,979 228,992 255,992 264,992 276,990 289,987 310,991 331,999 354,1012 L 381,999 492,748 772,1049 836,1024 860,1049 C 881,1039 901,1025 922,1006 886,937 835,863 770,784 769,783 710,716 594,584 L 774,223 C 774,196 753,168 711,139 L 727,119 C 717,90 699,76 672,76 641,76 570,178 457,381 L 164,-76 C 142,-110 111,-127 72,-127 30,-127 9,-110 8,-76 1,-67 -2,-52 -2,-32 -2,-23 -1,-13 0,-2 Z"/>
  </g>
  <g id="bullet-char-template-10004" transform="scale(0.00048828125,-0.00048828125)">
   <path d="M 285,-33 C 182,-33 111,30 74,156 52,228 41,333 41,471 41,549 55,616 82,672 116,743 169,778 240,778 293,778 328,747 346,684 L 369,508 C 377,444 397,411 428,410 L 1163,1116 C 1174,1127 1196,1133 1229,1133 1271,1133 1292,1118 1292,1087 L 1292,965 C 1292,929 1282,901 1262,881 L 442,47 C 390,-6 338,-33 285,-33 Z"/>
  </g>
  <g id="bullet-char-template-9679" transform="scale(0.00048828125,-0.00048828125)">
   <path d="M 813,0 C 632,0 489,54 383,161 276,268 223,411 223,592 223,773 276,916 383,1023 489,1130 632,1184 813,1184 992,1184 1136,1130 1245,1023 1353,916 1407,772 1407,592 1407,412 1353,268 1245,161 1136,54 992,0 813,0 Z"/>
  </g>
  <g id="bullet-char-template-8226" transform="scale(0.00048828125,-0.00048828125)">
   <path d="M 346,457 C 273,457 209,483 155,535 101,586 74,649 74,723 74,796 101,859 155,911 209,963 273,989 346,989 419,989 480,963 531,910 582,859 608,796 608,723 608,648 583,586 532,535 482,483 420,457 346,457 Z"/>
  </g>
  <g id="bullet-char-template-8211" transform="scale(0.00048828125,-0.00048828125)">
   <path d="M -4,459 L 1135,459 1135,606 -4,606 -4,459 Z"/>
  </g>
  <g id="bullet-char-template-61548" transform="scale(0.00048828125,-0.00048828125)">
   <path d="M 173,740 C 173,903 231,1043 346,1159 462,1274 601,1332 765,1332 928,1332 1067,1274 1183,1159 1299,1043 1357,903 1357,740 1357,577 1299,437 1183,322 1067,206 928,148 765,148 601,148 462,206 346,322 231,437 173,577 173,740 Z"/>
  </g>
 </defs>
 <g>
  <g id="id2" class="Master_Slide">
   <g id="bg-id2" class="Background"/>
   <g id="bo-id2" class="BackgroundObjects"/>
  </g>
 </g>
 <g class="SlideGroup">
  <g>
   <g id="container-id1">
    <g id="id1" class="Slide" clip-path="url(#presentation_clip_path)">
     <g class="Page">
      <g class="Group">
       <g class="com.sun.star.drawing.ClosedBezierShape">
        <g id="id3">
         <rect class="BoundingBox" stroke="none" fill="none" x="11000" y="500" width="4731" height="4842"/>
         <path fill="rgb(161,70,126)" stroke="none" d="M 15730,5340 L 11007,5340 C 11003,5251 11000,5163 11000,5074 11000,4271 11206,3482 11599,2786 11990,2091 12554,1514 13233,1113 13913,711 14684,500 15468,500 15555,500 15643,503 15730,508 L 15730,5340 Z "/>
        </g>
       </g>
       <g class="Group">
        <g class="com.sun.star.drawing.CustomShape">
         <g id="id4">
          <rect class="BoundingBox" stroke="none" fill="none" x="11001" y="7347" width="5255" height="2154"/>
          <path fill="rgb(161,70,126)" stroke="none" d="M 11001,8424 C 11001,8235 11122,8049 11353,7885 11584,7722 11915,7586 12315,7491 12714,7397 13167,7347 13628,7347 14089,7347 14542,7397 14942,7491 15341,7586 15672,7722 15903,7885 16134,8049 16255,8235 16255,8424 16255,8612 16134,8798 15903,8962 15672,9125 15341,9261 14942,9356 14542,9450 14089,9500 13628,9500 13167,9500 12714,9450 12315,9356 11915,9261 11584,9125 11353,8962 11122,8798 11001,8612 11001,8424 L 11001,8424 Z "/>
         </g>
        </g>
        <g class="com.sun.star.drawing.CustomShape">
         <g id="id5">
          <rect class="BoundingBox" stroke="none" fill="none" x="11001" y="6764" width="5255" height="2154"/>
          <path fill="rgb(120,3,115)" stroke="none" d="M 11001,7841 C 11001,7652 11122,7466 11353,7302 11584,7139 11915,7003 12315,6908 12714,6814 13167,6764 13628,6764 14089,6764 14542,6814 14942,6908 15341,7003 15672,7139 15903,7302 16134,7466 16255,7652 16255,7841 16255,8029 16134,8215 15903,8379 15672,8542 15341,8678 14942,8773 14542,8867 14089,8917 13628,8917 13167,8917 12714,8867 12315,8773 11915,8678 11584,8542 11353,8379 11122,8215 11001,8029 11001,7841 L 11001,7841 Z "/>
         </g>
        </g>
        <g class="com.sun.star.drawing.CustomShape">
         <g id="id6">
          <rect class="BoundingBox" stroke="none" fill="none" x="11001" y="6032" width="5255" height="2155"/>
          <path fill="rgb(161,70,126)" stroke="none" d="M 11001,7110 C 11001,6921 11122,6735 11353,6571 11584,6408 11915,6272 12315,6177 12714,6083 13167,6033 13628,6033 14089,6033 14542,6083 14942,6177 15341,6272 15672,6408 15903,6571 16134,6735 16255,6921 16255,7110 16255,7298 16134,7484 15903,7648 15672,7811 15341,7947 14942,8042 14542,8136 14089,8186 13628,8186 13167,8186 12714,8136 12315,8042 11915,7947 11584,7811 11353,7648 11122,7484 11001,7298 11001,7110 L 11001,7110 Z "/>
         </g>
        </g>
        <g class="com.sun.star.drawing.CustomShape">
         <g id="id7">
          <rect class="BoundingBox" stroke="none" fill="none" x="11002" y="4958" width="5254" height="2154"/>
          <path fill="rgb(161,70,126)" stroke="none" d="M 11002,6035 L 11002,4958 16255,4958 16255,7111 11002,7111 11002,6035 Z "/>
         </g>
        </g>
        <g class="Group">
         <g class="com.sun.star.drawing.CustomShape">
          <g id="id8">
           <rect class="BoundingBox" stroke="none" fill="none" x="15379" y="499" width="2454" height="5380"/>
           <path fill="rgb(161,70,126)" stroke="none" d="M 16606,5878 L 15379,5878 15379,499 17832,499 17832,5878 16606,5878 Z "/>
          </g>
         </g>
         <g class="com.sun.star.drawing.CustomShape">
          <g id="id9">
           <rect class="BoundingBox" stroke="none" fill="none" x="16779" y="498" width="2104" height="5382"/>
           <path fill="rgb(120,3,115)" stroke="none" d="M 17831,5879 C 17646,5879 17465,5755 17305,5519 17145,5283 17012,4943 16920,4534 16828,4125 16779,3661 16779,3189 16779,2717 16828,2253 16920,1844 17012,1435 17145,1095 17305,859 17465,623 17646,499 17831,499 18015,499 18196,623 18356,859 18516,1095 18649,1435 18741,1844 18833,2253 18882,2717 18882,3189 18882,3661 18833,4125 18741,4534 18649,4943 18516,5283 18356,5519 18196,5755 18015,5879 17831,5879 L 17831,5879 Z "/>
          </g>
         </g>
        </g>
        <g class="com.sun.star.drawing.CustomShape">
         <g id="id10">
          <rect class="BoundingBox" stroke="none" fill="none" x="17328" y="499" width="2103" height="5381"/>
          <path fill="rgb(161,70,126)" stroke="none" d="M 18379,499 C 18563,499 18745,623 18905,859 19064,1095 19197,1435 19289,1844 19381,2253 19430,2717 19430,3189 19430,3661 19381,4125 19289,4534 19197,4943 19064,5283 18905,5519 18745,5755 18563,5879 18379,5879 18195,5879 18013,5755 17854,5519 17694,5283 17561,4943 17469,4534 17377,4125 17328,3661 17328,3189 17328,2717 17377,2253 17469,1844 17561,1435 17694,1095 17854,859 18013,623 18195,499 18379,499 L 18379,499 Z "/>
         </g>
        </g>
        <g class="com.sun.star.drawing.CustomShape">
         <g id="id11">
          <rect class="BoundingBox" stroke="none" fill="none" x="17898" y="499" width="2103" height="5381"/>
          <path fill="rgb(120,3,115)" stroke="none" d="M 18949,499 C 19133,499 19315,623 19475,859 19634,1095 19767,1435 19859,1844 19951,2253 20000,2717 20000,3189 20000,3661 19951,4125 19859,4534 19767,4943 19634,5283 19475,5519 19315,5755 19133,5879 18949,5879 18765,5879 18583,5755 18424,5519 18264,5283 18131,4943 18039,4534 17947,4125 17898,3661 17898,3189 17898,2717 17947,2253 18039,1844 18131,1435 18264,1095 18424,859 18583,623 18765,499 18949,499 L 18949,499 Z "/>
         </g>
        </g>
       </g>
      </g>
     </g>
    </g>
   </g>
  </g>
 </g>
</svg>